<svg width="220" height="48" viewBox="0 0 220 48" fill="none" xmlns="http://www.w3.org/2000/svg">
<path d="M44.6562 17H43.2188L38.6641 8.23438V17H37.2266V5.625H38.6641L43.2344 14.4297V5.625H44.6562V17ZM46.6484 12.3828C46.6484 11.7214 46.7318 11.1432 46.8984 10.6484C47.0703 10.1484 47.3021 9.73177 47.5938 9.39844C47.8906 9.0651 48.237 8.8151 48.6328 8.64844C49.0286 8.47656 49.4531 8.39062 49.9062 8.39062C50.3646 8.39062 50.7943 8.47656 51.1953 8.64844C51.5964 8.8151 51.9427 9.0651 52.2344 9.39844C52.5312 9.73177 52.763 10.1484 52.9297 10.6484C53.1016 11.1432 53.1875 11.7214 53.1875 12.3828V13.1797C53.1875 13.8359 53.1016 14.4141 52.9297 14.9141C52.763 15.4089 52.5312 15.8229 52.2344 16.1562C51.9427 16.4896 51.599 16.7396 51.2031 16.9062C50.8073 17.0729 50.3802 17.1562 49.9219 17.1562C49.4635 17.1562 49.0339 17.0729 48.6328 16.9062C48.237 16.7396 47.8906 16.4896 47.5938 16.1562C47.3021 15.8229 47.0703 15.4089 46.8984 14.9141C46.7318 14.4141 46.6484 13.8359 46.6484 13.1797V12.3828ZM48.0312 13.1797C48.0312 13.6484 48.0781 14.0573 48.1719 14.4062C48.2708 14.7552 48.4036 15.0469 48.5703 15.2812C48.7422 15.5104 48.9427 15.6849 49.1719 15.8047C49.401 15.9193 49.651 15.9766 49.9219 15.9766C51.1771 15.9766 51.8047 15.0443 51.8047 13.1797V12.3828C51.8047 11.9193 51.7552 11.513 51.6562 11.1641C51.5625 10.8151 51.4297 10.5234 51.2578 10.2891C51.0911 10.0547 50.8906 9.8776 50.6562 9.75781C50.4271 9.63802 50.1771 9.57812 49.9062 9.57812C49.6406 9.57812 49.3932 9.63802 49.1641 9.75781C48.9349 9.8776 48.737 10.0547 48.5703 10.2891C48.4036 10.5234 48.2708 10.8151 48.1719 11.1641C48.0781 11.513 48.0312 11.9193 48.0312 12.3828V13.1797ZM64.8828 17H58.5234V15.9609L61.6484 11.8203C61.9349 11.4401 62.1693 11.1042 62.3516 10.8125C62.5391 10.5208 62.6849 10.2552 62.7891 10.0156C62.8984 9.77083 62.9714 9.54427 63.0078 9.33594C63.0495 9.1224 63.0703 8.90625 63.0703 8.6875C63.0703 8.40625 63.0365 8.14323 62.9688 7.89844C62.901 7.64844 62.8021 7.43229 62.6719 7.25C62.5417 7.06771 62.3802 6.92448 62.1875 6.82031C62 6.71094 61.7839 6.65625 61.5391 6.65625C61.2214 6.65625 60.9479 6.71354 60.7188 6.82812C60.4948 6.94271 60.3073 7.10156 60.1562 7.30469C60.0104 7.50781 59.901 7.7526 59.8281 8.03906C59.7604 8.32031 59.7266 8.63281 59.7266 8.97656H58.3438C58.3438 8.4974 58.4115 8.04427 58.5469 7.61719C58.6823 7.1901 58.8828 6.81771 59.1484 6.5C59.4141 6.18229 59.7448 5.93229 60.1406 5.75C60.5417 5.5625 61.0078 5.46875 61.5391 5.46875C61.9974 5.46875 62.4062 5.54167 62.7656 5.6875C63.1302 5.83333 63.4375 6.04167 63.6875 6.3125C63.9375 6.57812 64.1276 6.89844 64.2578 7.27344C64.3932 7.64844 64.4609 8.0625 64.4609 8.51562C64.4609 8.84896 64.4141 9.1849 64.3203 9.52344C64.2318 9.86198 64.1068 10.2005 63.9453 10.5391C63.7839 10.8724 63.5964 11.2057 63.3828 11.5391C63.1693 11.8672 62.9427 12.1901 62.7031 12.5078L60.1719 15.8203H64.8828V17ZM68.1953 10.6094H69.0938C69.3906 10.6094 69.6484 10.5599 69.8672 10.4609C70.0911 10.362 70.2734 10.2266 70.4141 10.0547C70.5599 9.8776 70.6693 9.67188 70.7422 9.4375C70.8151 9.19792 70.8516 8.9375 70.8516 8.65625C70.8516 8.00521 70.7214 7.51042 70.4609 7.17188C70.2057 6.82812 69.8203 6.65625 69.3047 6.65625C69.0599 6.65625 68.8385 6.70312 68.6406 6.79688C68.4479 6.88542 68.2839 7.01562 68.1484 7.1875C68.013 7.35417 67.9062 7.5599 67.8281 7.80469C67.7552 8.04427 67.7188 8.3125 67.7188 8.60938H66.3438C66.3438 8.17188 66.4115 7.76302 66.5469 7.38281C66.6875 7.0026 66.8854 6.67188 67.1406 6.39062C67.401 6.10417 67.7135 5.88021 68.0781 5.71875C68.4427 5.55208 68.8516 5.46875 69.3047 5.46875C69.7422 5.46875 70.138 5.53906 70.4922 5.67969C70.8516 5.8151 71.1589 6.01823 71.4141 6.28906C71.6745 6.55469 71.875 6.88802 72.0156 7.28906C72.1562 7.6901 72.2266 8.15625 72.2266 8.6875C72.2266 8.90104 72.1979 9.125 72.1406 9.35938C72.0885 9.59375 72.0026 9.82292 71.8828 10.0469C71.763 10.2708 71.6094 10.4818 71.4219 10.6797C71.2396 10.8724 71.0156 11.0339 70.75 11.1641C71.0729 11.2839 71.3385 11.4427 71.5469 11.6406C71.7552 11.8333 71.9193 12.0495 72.0391 12.2891C72.1589 12.5286 72.2422 12.7812 72.2891 13.0469C72.3359 13.3125 72.3594 13.5729 72.3594 13.8281C72.3594 14.3594 72.2812 14.8333 72.125 15.25C71.9688 15.6615 71.7526 16.0078 71.4766 16.2891C71.2057 16.5703 70.8828 16.7865 70.5078 16.9375C70.138 17.0833 69.7344 17.1562 69.2969 17.1562C68.8698 17.1562 68.4714 17.0885 68.1016 16.9531C67.737 16.8125 67.4193 16.6094 67.1484 16.3438C66.8776 16.0729 66.6641 15.7422 66.5078 15.3516C66.3568 14.9557 66.2812 14.5052 66.2812 14H67.6641C67.6641 14.2969 67.7005 14.5677 67.7734 14.8125C67.8464 15.0521 67.9531 15.2604 68.0938 15.4375C68.2344 15.6094 68.4036 15.7422 68.6016 15.8359C68.8047 15.9297 69.0365 15.9766 69.2969 15.9766C69.8125 15.9766 70.2214 15.8021 70.5234 15.4531C70.8307 15.1042 70.9844 14.5729 70.9844 13.8594C70.9844 13.151 70.8151 12.6302 70.4766 12.2969C70.138 11.9583 69.6771 11.7891 69.0938 11.7891H68.1953V10.6094ZM76.1016 10.6094H77C77.2969 10.6094 77.5547 10.5599 77.7734 10.4609C77.9974 10.362 78.1797 10.2266 78.3203 10.0547C78.4661 9.8776 78.5755 9.67188 78.6484 9.4375C78.7214 9.19792 78.7578 8.9375 78.7578 8.65625C78.7578 8.00521 78.6276 7.51042 78.3672 7.17188C78.112 6.82812 77.7266 6.65625 77.2109 6.65625C76.9661 6.65625 76.7448 6.70312 76.5469 6.79688C76.3542 6.88542 76.1901 7.01562 76.0547 7.1875C75.9193 7.35417 75.8125 7.5599 75.7344 7.80469C75.6615 8.04427 75.625 8.3125 75.625 8.60938H74.25C74.25 8.17188 74.3177 7.76302 74.4531 7.38281C74.5938 7.0026 74.7917 6.67188 75.0469 6.39062C75.3073 6.10417 75.6198 5.88021 75.9844 5.71875C76.349 5.55208 76.7578 5.46875 77.2109 5.46875C77.6484 5.46875 78.0443 5.53906 78.3984 5.67969C78.7578 5.8151 79.0651 6.01823 79.3203 6.28906C79.5807 6.55469 79.7812 6.88802 79.9219 7.28906C80.0625 7.6901 80.1328 8.15625 80.1328 8.6875C80.1328 8.90104 80.1042 9.125 80.0469 9.35938C79.9948 9.59375 79.9089 9.82292 79.7891 10.0469C79.6693 10.2708 79.5156 10.4818 79.3281 10.6797C79.1458 10.8724 78.9219 11.0339 78.6562 11.1641C78.9792 11.2839 79.2448 11.4427 79.4531 11.6406C79.6615 11.8333 79.8255 12.0495 79.9453 12.2891C80.0651 12.5286 80.1484 12.7812 80.1953 13.0469C80.2422 13.3125 80.2656 13.5729 80.2656 13.8281C80.2656 14.3594 80.1875 14.8333 80.0312 15.25C79.875 15.6615 79.6589 16.0078 79.3828 16.2891C79.112 16.5703 78.7891 16.7865 78.4141 16.9375C78.0443 17.0833 77.6406 17.1562 77.2031 17.1562C76.776 17.1562 76.3776 17.0885 76.0078 16.9531C75.6432 16.8125 75.3255 16.6094 75.0547 16.3438C74.7839 16.0729 74.5703 15.7422 74.4141 15.3516C74.263 14.9557 74.1875 14.5052 74.1875 14H75.5703C75.5703 14.2969 75.6068 14.5677 75.6797 14.8125C75.7526 15.0521 75.8594 15.2604 76 15.4375C76.1406 15.6094 76.3099 15.7422 76.5078 15.8359C76.7109 15.9297 76.9427 15.9766 77.2031 15.9766C77.7188 15.9766 78.1276 15.8021 78.4297 15.4531C78.737 15.1042 78.8906 14.5729 78.8906 13.8594C78.8906 13.151 78.7214 12.6302 78.3828 12.2969C78.0443 11.9583 77.5833 11.7891 77 11.7891H76.1016V10.6094ZM88.0703 5.625L91.0391 14.9062L94.0078 5.625H95.8516V17H94.4219V12.5703L94.5547 8.13281L91.5781 17H90.4844L87.5234 8.16406L87.6562 12.5703V17H86.2266V5.625H88.0703ZM102.477 17C102.43 16.8958 102.391 16.763 102.359 16.6016C102.333 16.4349 102.312 16.2604 102.297 16.0781C102.198 16.224 102.083 16.362 101.953 16.4922C101.828 16.6224 101.685 16.737 101.523 16.8359C101.367 16.9349 101.195 17.013 101.008 17.0703C100.826 17.1276 100.63 17.1562 100.422 17.1562C100.052 17.1562 99.7161 17.1042 99.4141 17C99.1172 16.8958 98.862 16.7396 98.6484 16.5312C98.4349 16.3229 98.2708 16.0677 98.1562 15.7656C98.0417 15.4583 97.9844 15.1016 97.9844 14.6953C97.9844 14.2891 98.0547 13.9141 98.1953 13.5703C98.3359 13.2266 98.5443 12.9297 98.8203 12.6797C99.0964 12.4297 99.4427 12.2344 99.8594 12.0938C100.276 11.9479 100.76 11.875 101.312 11.875H102.273V10.9766C102.273 10.4714 102.161 10.112 101.938 9.89844C101.714 9.6849 101.372 9.57812 100.914 9.57812C100.69 9.57812 100.49 9.61458 100.312 9.6875C100.141 9.75521 99.9948 9.84896 99.875 9.96875C99.7552 10.0885 99.6641 10.2292 99.6016 10.3906C99.5391 10.5469 99.5078 10.7135 99.5078 10.8906H98.125C98.125 10.5885 98.1901 10.2891 98.3203 9.99219C98.4557 9.6901 98.6458 9.42188 98.8906 9.1875C99.1406 8.94792 99.4427 8.75521 99.7969 8.60938C100.151 8.46354 100.547 8.39062 100.984 8.39062C101.375 8.39062 101.732 8.4375 102.055 8.53125C102.383 8.625 102.664 8.77604 102.898 8.98438C103.138 9.19271 103.323 9.46094 103.453 9.78906C103.583 10.1172 103.648 10.5182 103.648 10.9922V15.1562C103.648 15.2969 103.654 15.4453 103.664 15.6016C103.674 15.7578 103.69 15.9115 103.711 16.0625C103.737 16.2135 103.766 16.3594 103.797 16.5C103.833 16.6354 103.872 16.7604 103.914 16.875V17H102.477ZM100.633 15.8984C100.826 15.8984 101.008 15.8698 101.18 15.8125C101.352 15.7552 101.508 15.6823 101.648 15.5938C101.789 15.5 101.911 15.3958 102.016 15.2812C102.125 15.1615 102.211 15.0391 102.273 14.9141V12.8984H101.547C101.214 12.8984 100.911 12.9349 100.641 13.0078C100.375 13.0807 100.146 13.1875 99.9531 13.3281C99.7656 13.4635 99.6198 13.6328 99.5156 13.8359C99.4167 14.0391 99.3672 14.2708 99.3672 14.5312C99.3672 14.7865 99.3932 15.0026 99.4453 15.1797C99.4974 15.3516 99.5755 15.4922 99.6797 15.6016C99.7839 15.7057 99.9141 15.7812 100.07 15.8281C100.232 15.875 100.419 15.8984 100.633 15.8984ZM107.289 17H105.906V8.54688H107.289V17ZM105.828 6.30469C105.828 6.07031 105.893 5.8724 106.023 5.71094C106.154 5.54948 106.349 5.46875 106.609 5.46875C106.87 5.46875 107.065 5.55208 107.195 5.71875C107.331 5.88021 107.398 6.07552 107.398 6.30469C107.398 6.53906 107.333 6.73438 107.203 6.89062C107.073 7.04688 106.875 7.125 106.609 7.125C106.349 7.125 106.154 7.04688 106.023 6.89062C105.893 6.73438 105.828 6.53906 105.828 6.30469ZM110.773 8.54688L110.812 9.46094C111.068 9.1224 111.367 8.85938 111.711 8.67188C112.06 8.48438 112.445 8.39062 112.867 8.39062C113.211 8.39062 113.523 8.44792 113.805 8.5625C114.086 8.67188 114.326 8.85156 114.523 9.10156C114.721 9.34635 114.872 9.66406 114.977 10.0547C115.086 10.4401 115.141 10.9089 115.141 11.4609V17H113.766V11.4453C113.766 10.7839 113.654 10.3151 113.43 10.0391C113.211 9.75781 112.88 9.61719 112.438 9.61719C112.094 9.61719 111.784 9.73177 111.508 9.96094C111.237 10.1901 111.018 10.4896 110.852 10.8594V17H109.469V8.54688H110.773ZM126.055 14.125C126.055 13.8594 126.023 13.625 125.961 13.4219C125.904 13.2188 125.794 13.0339 125.633 12.8672C125.471 12.6953 125.253 12.5365 124.977 12.3906C124.701 12.2396 124.344 12.0859 123.906 11.9297C123.438 11.7682 123.013 11.5859 122.633 11.3828C122.253 11.1745 121.927 10.9375 121.656 10.6719C121.391 10.401 121.185 10.0938 121.039 9.75C120.893 9.40625 120.82 9.01302 120.82 8.57031C120.82 8.1276 120.896 7.71875 121.047 7.34375C121.203 6.96354 121.422 6.63542 121.703 6.35938C121.99 6.07812 122.333 5.85938 122.734 5.70312C123.141 5.54688 123.591 5.46875 124.086 5.46875C124.638 5.46875 125.125 5.5651 125.547 5.75781C125.974 5.95052 126.331 6.20573 126.617 6.52344C126.909 6.84115 127.128 7.20833 127.273 7.625C127.419 8.04167 127.492 8.47135 127.492 8.91406H126.055C126.055 8.59635 126.016 8.30208 125.938 8.03125C125.865 7.76042 125.747 7.52604 125.586 7.32812C125.424 7.13021 125.219 6.97656 124.969 6.86719C124.724 6.75781 124.43 6.70312 124.086 6.70312C123.768 6.70312 123.495 6.75 123.266 6.84375C123.036 6.9375 122.846 7.06771 122.695 7.23438C122.549 7.39583 122.44 7.58854 122.367 7.8125C122.299 8.03646 122.266 8.28125 122.266 8.54688C122.266 9.02604 122.438 9.42708 122.781 9.75C123.125 10.0729 123.656 10.362 124.375 10.6172C124.927 10.7995 125.401 11.0026 125.797 11.2266C126.193 11.4453 126.516 11.6953 126.766 11.9766C127.021 12.2578 127.206 12.5729 127.32 12.9219C127.44 13.2708 127.5 13.6667 127.5 14.1094C127.5 14.5729 127.422 14.9922 127.266 15.3672C127.109 15.7422 126.885 16.0625 126.594 16.3281C126.307 16.5938 125.958 16.7995 125.547 16.9453C125.135 17.0859 124.672 17.1562 124.156 17.1562C123.708 17.1562 123.266 17.0833 122.828 16.9375C122.396 16.7917 122.008 16.5755 121.664 16.2891C121.326 15.9974 121.049 15.6354 120.836 15.2031C120.628 14.7708 120.523 14.2708 120.523 13.7031H121.961C121.961 14.0938 122.018 14.4297 122.133 14.7109C122.247 14.987 122.404 15.2161 122.602 15.3984C122.805 15.5807 123.039 15.7161 123.305 15.8047C123.57 15.888 123.854 15.9297 124.156 15.9297C124.786 15.9297 125.26 15.7682 125.578 15.4453C125.896 15.1224 126.055 14.6823 126.055 14.125ZM131 6.5V8.54688H132.273V9.66406H131V14.9062C131 15.125 131.021 15.3021 131.062 15.4375C131.104 15.5677 131.159 15.6693 131.227 15.7422C131.294 15.8151 131.37 15.8646 131.453 15.8906C131.542 15.9115 131.633 15.9219 131.727 15.9219C131.82 15.9219 131.924 15.9115 132.039 15.8906C132.154 15.8646 132.234 15.8438 132.281 15.8281L132.266 17C132.172 17.0312 132.047 17.0651 131.891 17.1016C131.74 17.138 131.544 17.1562 131.305 17.1562C131.081 17.1562 130.867 17.1172 130.664 17.0391C130.461 16.9661 130.281 16.8411 130.125 16.6641C129.974 16.487 129.852 16.2552 129.758 15.9688C129.669 15.6771 129.625 15.3203 129.625 14.8984V9.66406H128.336V8.54688H129.625V6.5H131ZM134.016 16.2422C134.016 15.9922 134.089 15.7839 134.234 15.6172C134.385 15.4505 134.609 15.3672 134.906 15.3672C135.203 15.3672 135.427 15.4505 135.578 15.6172C135.734 15.7839 135.812 15.9922 135.812 16.2422C135.812 16.4818 135.734 16.6823 135.578 16.8438C135.427 17.0052 135.203 17.0859 134.906 17.0859C134.609 17.0859 134.385 17.0052 134.234 16.8438C134.089 16.6823 134.016 16.4818 134.016 16.2422ZM149.438 17H148L143.445 8.23438V17H142.008V5.625H143.445L148.016 14.4297V5.625H149.438V17ZM154.742 17.1562C154.237 17.1562 153.781 17.0807 153.375 16.9297C152.969 16.7786 152.622 16.5495 152.336 16.2422C152.055 15.9297 151.839 15.5365 151.688 15.0625C151.536 14.5885 151.461 14.0286 151.461 13.3828V12.4297C151.461 11.6849 151.549 11.0573 151.727 10.5469C151.904 10.0312 152.135 9.61458 152.422 9.29688C152.714 8.97396 153.047 8.74219 153.422 8.60156C153.797 8.46094 154.185 8.39062 154.586 8.39062C155.117 8.39062 155.57 8.47917 155.945 8.65625C156.32 8.82812 156.628 9.08333 156.867 9.42188C157.107 9.76042 157.281 10.1771 157.391 10.6719C157.5 11.1667 157.555 11.737 157.555 12.3828V13.1875H152.836V13.3828C152.836 14.2891 153.005 14.9479 153.344 15.3594C153.688 15.7708 154.18 15.9766 154.82 15.9766C155.055 15.9766 155.266 15.9531 155.453 15.9062C155.641 15.8594 155.812 15.7943 155.969 15.7109C156.125 15.6224 156.268 15.5208 156.398 15.4062C156.529 15.2865 156.651 15.1562 156.766 15.0156L157.484 15.8906C157.37 16.0521 157.232 16.2083 157.07 16.3594C156.909 16.5104 156.716 16.6458 156.492 16.7656C156.268 16.8802 156.01 16.974 155.719 17.0469C155.432 17.1198 155.107 17.1562 154.742 17.1562ZM154.586 9.57812C154.346 9.57812 154.125 9.61458 153.922 9.6875C153.719 9.76042 153.539 9.89062 153.383 10.0781C153.232 10.2604 153.109 10.5078 153.016 10.8203C152.922 11.1328 152.865 11.526 152.844 12H156.172V11.8125C156.156 11.4844 156.12 11.1849 156.062 10.9141C156.01 10.638 155.924 10.401 155.805 10.2031C155.69 10.0052 155.534 9.85156 155.336 9.74219C155.138 9.63281 154.888 9.57812 154.586 9.57812ZM165.523 14.5703L166.805 8.54688H168.172L166.102 17H165L163.352 10.9531L161.742 17H160.633L158.578 8.54688H159.938L161.25 14.4219L162.82 8.54688H163.914L165.523 14.5703ZM176.453 11.3359L178.781 5.625H180.398L177.164 12.7578V17H175.734V12.7578L172.5 5.625H174.125L176.453 11.3359ZM180.883 12.3828C180.883 11.7214 180.966 11.1432 181.133 10.6484C181.305 10.1484 181.536 9.73177 181.828 9.39844C182.125 9.0651 182.471 8.8151 182.867 8.64844C183.263 8.47656 183.688 8.39062 184.141 8.39062C184.599 8.39062 185.029 8.47656 185.43 8.64844C185.831 8.8151 186.177 9.0651 186.469 9.39844C186.766 9.73177 186.997 10.1484 187.164 10.6484C187.336 11.1432 187.422 11.7214 187.422 12.3828V13.1797C187.422 13.8359 187.336 14.4141 187.164 14.9141C186.997 15.4089 186.766 15.8229 186.469 16.1562C186.177 16.4896 185.833 16.7396 185.438 16.9062C185.042 17.0729 184.615 17.1562 184.156 17.1562C183.698 17.1562 183.268 17.0729 182.867 16.9062C182.471 16.7396 182.125 16.4896 181.828 16.1562C181.536 15.8229 181.305 15.4089 181.133 14.9141C180.966 14.4141 180.883 13.8359 180.883 13.1797V12.3828ZM182.266 13.1797C182.266 13.6484 182.312 14.0573 182.406 14.4062C182.505 14.7552 182.638 15.0469 182.805 15.2812C182.977 15.5104 183.177 15.6849 183.406 15.8047C183.635 15.9193 183.885 15.9766 184.156 15.9766C185.411 15.9766 186.039 15.0443 186.039 13.1797V12.3828C186.039 11.9193 185.99 11.513 185.891 11.1641C185.797 10.8151 185.664 10.5234 185.492 10.2891C185.326 10.0547 185.125 9.8776 184.891 9.75781C184.661 9.63802 184.411 9.57812 184.141 9.57812C183.875 9.57812 183.628 9.63802 183.398 9.75781C183.169 9.8776 182.971 10.0547 182.805 10.2891C182.638 10.5234 182.505 10.8151 182.406 11.1641C182.312 11.513 182.266 11.9193 182.266 12.3828V13.1797ZM192.695 9.84375C192.586 9.82292 192.484 9.8099 192.391 9.80469C192.297 9.79427 192.19 9.78906 192.07 9.78906C191.695 9.78906 191.385 9.89323 191.141 10.1016C190.901 10.3099 190.716 10.5938 190.586 10.9531V17H189.203V8.54688H190.547L190.57 9.40625C190.742 9.09375 190.956 8.84635 191.211 8.66406C191.471 8.48177 191.781 8.39062 192.141 8.39062C192.182 8.39062 192.229 8.39583 192.281 8.40625C192.339 8.41146 192.393 8.41927 192.445 8.42969C192.497 8.4401 192.544 8.45312 192.586 8.46875C192.633 8.47917 192.667 8.48958 192.688 8.5L192.695 9.84375ZM196.203 13.1328L195.469 13.9766V17H194.086V5H195.469V12.1797L196.086 11.3281L198.102 8.54688H199.758L197.07 12.0781L200.109 17H198.5L196.203 13.1328ZM202.672 16.4453C202.672 16.6797 202.641 16.9245 202.578 17.1797C202.521 17.4349 202.432 17.6875 202.312 17.9375C202.198 18.1875 202.057 18.4271 201.891 18.6562C201.724 18.8854 201.531 19.0885 201.312 19.2656L200.492 18.7031C200.737 18.3594 200.924 18.0052 201.055 17.6406C201.19 17.2812 201.258 16.8906 201.258 16.4688V15.2891H202.672V16.4453ZM44.0078 29.625V37.6406C44.0078 38.2812 43.9115 38.8255 43.7188 39.2734C43.526 39.7161 43.2682 40.0781 42.9453 40.3594C42.6224 40.6406 42.25 40.8438 41.8281 40.9688C41.4062 41.0938 40.9635 41.1562 40.5 41.1562C40.0104 41.1562 39.5521 41.0938 39.125 40.9688C38.7031 40.8438 38.3359 40.6406 38.0234 40.3594C37.7109 40.0781 37.4635 39.7161 37.2812 39.2734C37.1042 38.8255 37.0156 38.2812 37.0156 37.6406V29.625H38.4375V37.6406C38.4375 38.0833 38.487 38.4531 38.5859 38.75C38.6849 39.0417 38.8229 39.276 39 39.4531C39.1823 39.6302 39.3984 39.7552 39.6484 39.8281C39.9036 39.901 40.1875 39.9375 40.5 39.9375C40.8125 39.9375 41.0964 39.901 41.3516 39.8281C41.6068 39.7552 41.8229 39.6302 42 39.4531C42.1823 39.276 42.3229 39.0417 42.4219 38.75C42.5208 38.4531 42.5703 38.0833 42.5703 37.6406V29.625H44.0078ZM47.3203 32.5469L47.3594 33.4609C47.6146 33.1224 47.9141 32.8594 48.2578 32.6719C48.6068 32.4844 48.9922 32.3906 49.4141 32.3906C49.7578 32.3906 50.0703 32.4479 50.3516 32.5625C50.6328 32.6719 50.8724 32.8516 51.0703 33.1016C51.2682 33.3464 51.4193 33.6641 51.5234 34.0547C51.6328 34.4401 51.6875 34.9089 51.6875 35.4609V41H50.3125V35.4453C50.3125 34.7839 50.2005 34.3151 49.9766 34.0391C49.7578 33.7578 49.4271 33.6172 48.9844 33.6172C48.6406 33.6172 48.3307 33.7318 48.0547 33.9609C47.7839 34.1901 47.5651 34.4896 47.3984 34.8594V41H46.0156V32.5469H47.3203ZM55.2578 41H53.875V32.5469H55.2578V41ZM53.7969 30.3047C53.7969 30.0703 53.862 29.8724 53.9922 29.7109C54.1224 29.5495 54.3177 29.4688 54.5781 29.4688C54.8385 29.4688 55.0339 29.5521 55.1641 29.7188C55.2995 29.8802 55.3672 30.0755 55.3672 30.3047C55.3672 30.5391 55.3021 30.7344 55.1719 30.8906C55.0417 31.0469 54.8438 31.125 54.5781 31.125C54.3177 31.125 54.1224 31.0469 53.9922 30.8906C53.862 30.7344 53.7969 30.5391 53.7969 30.3047ZM59.25 30.5V32.5469H60.5234V33.6641H59.25V38.9062C59.25 39.125 59.2708 39.3021 59.3125 39.4375C59.3542 39.5677 59.4089 39.6693 59.4766 39.7422C59.5443 39.8151 59.6198 39.8646 59.7031 39.8906C59.7917 39.9115 59.8828 39.9219 59.9766 39.9219C60.0703 39.9219 60.1745 39.9115 60.2891 39.8906C60.4036 39.8646 60.4844 39.8438 60.5312 39.8281L60.5156 41C60.4219 41.0312 60.2969 41.0651 60.1406 41.1016C59.9896 41.138 59.7943 41.1562 59.5547 41.1562C59.3307 41.1562 59.1172 41.1172 58.9141 41.0391C58.7109 40.9661 58.5312 40.8411 58.375 40.6641C58.224 40.487 58.1016 40.2552 58.0078 39.9688C57.9193 39.6771 57.875 39.3203 57.875 38.8984V33.6641H56.5859V32.5469H57.875V30.5H59.25ZM65.1953 41.1562C64.6901 41.1562 64.2344 41.0807 63.8281 40.9297C63.4219 40.7786 63.0755 40.5495 62.7891 40.2422C62.5078 39.9297 62.2917 39.5365 62.1406 39.0625C61.9896 38.5885 61.9141 38.0286 61.9141 37.3828V36.4297C61.9141 35.6849 62.0026 35.0573 62.1797 34.5469C62.3568 34.0312 62.5885 33.6146 62.875 33.2969C63.1667 32.974 63.5 32.7422 63.875 32.6016C64.25 32.4609 64.638 32.3906 65.0391 32.3906C65.5703 32.3906 66.0234 32.4792 66.3984 32.6562C66.7734 32.8281 67.0807 33.0833 67.3203 33.4219C67.5599 33.7604 67.7344 34.1771 67.8438 34.6719C67.9531 35.1667 68.0078 35.737 68.0078 36.3828V37.1875H63.2891V37.3828C63.2891 38.2891 63.4583 38.9479 63.7969 39.3594C64.1406 39.7708 64.6328 39.9766 65.2734 39.9766C65.5078 39.9766 65.7188 39.9531 65.9062 39.9062C66.0938 39.8594 66.2656 39.7943 66.4219 39.7109C66.5781 39.6224 66.7214 39.5208 66.8516 39.4062C66.9818 39.2865 67.1042 39.1562 67.2188 39.0156L67.9375 39.8906C67.8229 40.0521 67.6849 40.2083 67.5234 40.3594C67.362 40.5104 67.1693 40.6458 66.9453 40.7656C66.7214 40.8802 66.4635 40.974 66.1719 41.0469C65.8854 41.1198 65.5599 41.1562 65.1953 41.1562ZM65.0391 33.5781C64.7995 33.5781 64.5781 33.6146 64.375 33.6875C64.1719 33.7604 63.9922 33.8906 63.8359 34.0781C63.6849 34.2604 63.5625 34.5078 63.4688 34.8203C63.375 35.1328 63.3177 35.526 63.2969 36H66.625V35.8125C66.6094 35.4844 66.5729 35.1849 66.5156 34.9141C66.4635 34.638 66.3776 34.401 66.2578 34.2031C66.1432 34.0052 65.987 33.8516 65.7891 33.7422C65.5911 33.6328 65.3411 33.5781 65.0391 33.5781ZM69.3828 36.3906C69.3828 35.6979 69.4505 35.099 69.5859 34.5938C69.7214 34.0885 69.9115 33.6745 70.1562 33.3516C70.4062 33.0234 70.7057 32.7812 71.0547 32.625C71.4036 32.4688 71.7891 32.3906 72.2109 32.3906C72.6328 32.3906 72.9974 32.4766 73.3047 32.6484C73.6172 32.8151 73.8828 33.0573 74.1016 33.375V29H75.4844V41H74.2188L74.1484 40.0938C73.9297 40.4375 73.6615 40.7005 73.3438 40.8828C73.026 41.0651 72.6458 41.1562 72.2031 41.1562C71.7865 41.1562 71.4036 41.0755 71.0547 40.9141C70.7109 40.7474 70.4141 40.5 70.1641 40.1719C69.9193 39.8438 69.7266 39.4323 69.5859 38.9375C69.4505 38.4375 69.3828 37.8516 69.3828 37.1797V36.3906ZM70.7656 37.1797C70.7656 38.1276 70.9062 38.8255 71.1875 39.2734C71.4688 39.7161 71.9271 39.9375 72.5625 39.9375C72.9479 39.9375 73.263 39.8411 73.5078 39.6484C73.7526 39.4557 73.9505 39.2057 74.1016 38.8984V34.6328C73.9453 34.3359 73.7422 34.0938 73.4922 33.9062C73.2474 33.7135 72.9401 33.6172 72.5703 33.6172C71.9297 33.6172 71.4688 33.8438 71.1875 34.2969C70.9062 34.75 70.7656 35.4479 70.7656 36.3906V37.1797ZM86.4453 38.125C86.4453 37.8594 86.4141 37.625 86.3516 37.4219C86.2943 37.2188 86.1849 37.0339 86.0234 36.8672C85.862 36.6953 85.6432 36.5365 85.3672 36.3906C85.0911 36.2396 84.7344 36.0859 84.2969 35.9297C83.8281 35.7682 83.4036 35.5859 83.0234 35.3828C82.6432 35.1745 82.3177 34.9375 82.0469 34.6719C81.7812 34.401 81.5755 34.0938 81.4297 33.75C81.2839 33.4062 81.2109 33.013 81.2109 32.5703C81.2109 32.1276 81.2865 31.7188 81.4375 31.3438C81.5938 30.9635 81.8125 30.6354 82.0938 30.3594C82.3802 30.0781 82.724 29.8594 83.125 29.7031C83.5312 29.5469 83.9818 29.4688 84.4766 29.4688C85.0286 29.4688 85.5156 29.5651 85.9375 29.7578C86.3646 29.9505 86.7214 30.2057 87.0078 30.5234C87.2995 30.8411 87.5182 31.2083 87.6641 31.625C87.8099 32.0417 87.8828 32.4714 87.8828 32.9141H86.4453C86.4453 32.5964 86.4062 32.3021 86.3281 32.0312C86.2552 31.7604 86.138 31.526 85.9766 31.3281C85.8151 31.1302 85.6094 30.9766 85.3594 30.8672C85.1146 30.7578 84.8203 30.7031 84.4766 30.7031C84.1589 30.7031 83.8854 30.75 83.6562 30.8438C83.4271 30.9375 83.237 31.0677 83.0859 31.2344C82.9401 31.3958 82.8307 31.5885 82.7578 31.8125C82.6901 32.0365 82.6562 32.2812 82.6562 32.5469C82.6562 33.026 82.8281 33.4271 83.1719 33.75C83.5156 34.0729 84.0469 34.362 84.7656 34.6172C85.3177 34.7995 85.7917 35.0026 86.1875 35.2266C86.5833 35.4453 86.9062 35.6953 87.1562 35.9766C87.4115 36.2578 87.5964 36.5729 87.7109 36.9219C87.8307 37.2708 87.8906 37.6667 87.8906 38.1094C87.8906 38.5729 87.8125 38.9922 87.6562 39.3672C87.5 39.7422 87.276 40.0625 86.9844 40.3281C86.6979 40.5938 86.349 40.7995 85.9375 40.9453C85.526 41.0859 85.0625 41.1562 84.5469 41.1562C84.099 41.1562 83.6562 41.0833 83.2188 40.9375C82.7865 40.7917 82.3984 40.5755 82.0547 40.2891C81.7161 39.9974 81.4401 39.6354 81.2266 39.2031C81.0182 38.7708 80.9141 38.2708 80.9141 37.7031H82.3516C82.3516 38.0938 82.4089 38.4297 82.5234 38.7109C82.638 38.987 82.7943 39.2161 82.9922 39.3984C83.1953 39.5807 83.4297 39.7161 83.6953 39.8047C83.9609 39.888 84.2448 39.9297 84.5469 39.9297C85.1771 39.9297 85.651 39.7682 85.9688 39.4453C86.2865 39.1224 86.4453 38.6823 86.4453 38.125ZM91.3906 30.5V32.5469H92.6641V33.6641H91.3906V38.9062C91.3906 39.125 91.4115 39.3021 91.4531 39.4375C91.4948 39.5677 91.5495 39.6693 91.6172 39.7422C91.6849 39.8151 91.7604 39.8646 91.8438 39.8906C91.9323 39.9115 92.0234 39.9219 92.1172 39.9219C92.2109 39.9219 92.3151 39.9115 92.4297 39.8906C92.5443 39.8646 92.625 39.8438 92.6719 39.8281L92.6562 41C92.5625 41.0312 92.4375 41.0651 92.2812 41.1016C92.1302 41.138 91.9349 41.1562 91.6953 41.1562C91.4714 41.1562 91.2578 41.1172 91.0547 41.0391C90.8516 40.9661 90.6719 40.8411 90.5156 40.6641C90.3646 40.487 90.2422 40.2552 90.1484 39.9688C90.0599 39.6771 90.0156 39.3203 90.0156 38.8984V33.6641H88.7266V32.5469H90.0156V30.5H91.3906ZM98.6641 41C98.6172 40.8958 98.5781 40.763 98.5469 40.6016C98.5208 40.4349 98.5 40.2604 98.4844 40.0781C98.3854 40.224 98.2708 40.362 98.1406 40.4922C98.0156 40.6224 97.8724 40.737 97.7109 40.8359C97.5547 40.9349 97.3828 41.013 97.1953 41.0703C97.013 41.1276 96.8177 41.1562 96.6094 41.1562C96.2396 41.1562 95.9036 41.1042 95.6016 41C95.3047 40.8958 95.0495 40.7396 94.8359 40.5312C94.6224 40.3229 94.4583 40.0677 94.3438 39.7656C94.2292 39.4583 94.1719 39.1016 94.1719 38.6953C94.1719 38.2891 94.2422 37.9141 94.3828 37.5703C94.5234 37.2266 94.7318 36.9297 95.0078 36.6797C95.2839 36.4297 95.6302 36.2344 96.0469 36.0938C96.4635 35.9479 96.9479 35.875 97.5 35.875H98.4609V34.9766C98.4609 34.4714 98.349 34.112 98.125 33.8984C97.901 33.6849 97.5599 33.5781 97.1016 33.5781C96.8776 33.5781 96.6771 33.6146 96.5 33.6875C96.3281 33.7552 96.1823 33.849 96.0625 33.9688C95.9427 34.0885 95.8516 34.2292 95.7891 34.3906C95.7266 34.5469 95.6953 34.7135 95.6953 34.8906H94.3125C94.3125 34.5885 94.3776 34.2891 94.5078 33.9922C94.6432 33.6901 94.8333 33.4219 95.0781 33.1875C95.3281 32.9479 95.6302 32.7552 95.9844 32.6094C96.3385 32.4635 96.7344 32.3906 97.1719 32.3906C97.5625 32.3906 97.9193 32.4375 98.2422 32.5312C98.5703 32.625 98.8516 32.776 99.0859 32.9844C99.3255 33.1927 99.5104 33.4609 99.6406 33.7891C99.7708 34.1172 99.8359 34.5182 99.8359 34.9922V39.1562C99.8359 39.2969 99.8411 39.4453 99.8516 39.6016C99.862 39.7578 99.8776 39.9115 99.8984 40.0625C99.9245 40.2135 99.9531 40.3594 99.9844 40.5C100.021 40.6354 100.06 40.7604 100.102 40.875V41H98.6641ZM96.8203 39.8984C97.013 39.8984 97.1953 39.8698 97.3672 39.8125C97.5391 39.7552 97.6953 39.6823 97.8359 39.5938C97.9766 39.5 98.099 39.3958 98.2031 39.2812C98.3125 39.1615 98.3984 39.0391 98.4609 38.9141V36.8984H97.7344C97.401 36.8984 97.099 36.9349 96.8281 37.0078C96.5625 37.0807 96.3333 37.1875 96.1406 37.3281C95.9531 37.4635 95.8073 37.6328 95.7031 37.8359C95.6042 38.0391 95.5547 38.2708 95.5547 38.5312C95.5547 38.7865 95.5807 39.0026 95.6328 39.1797C95.6849 39.3516 95.763 39.4922 95.8672 39.6016C95.9714 39.7057 96.1016 39.7812 96.2578 39.8281C96.4193 39.875 96.6068 39.8984 96.8203 39.8984ZM103.797 30.5V32.5469H105.07V33.6641H103.797V38.9062C103.797 39.125 103.818 39.3021 103.859 39.4375C103.901 39.5677 103.956 39.6693 104.023 39.7422C104.091 39.8151 104.167 39.8646 104.25 39.8906C104.339 39.9115 104.43 39.9219 104.523 39.9219C104.617 39.9219 104.721 39.9115 104.836 39.8906C104.951 39.8646 105.031 39.8438 105.078 39.8281L105.062 41C104.969 41.0312 104.844 41.0651 104.688 41.1016C104.536 41.138 104.341 41.1562 104.102 41.1562C103.878 41.1562 103.664 41.1172 103.461 41.0391C103.258 40.9661 103.078 40.8411 102.922 40.6641C102.771 40.487 102.648 40.2552 102.555 39.9688C102.466 39.6771 102.422 39.3203 102.422 38.8984V33.6641H101.133V32.5469H102.422V30.5H103.797ZM109.742 41.1562C109.237 41.1562 108.781 41.0807 108.375 40.9297C107.969 40.7786 107.622 40.5495 107.336 40.2422C107.055 39.9297 106.839 39.5365 106.688 39.0625C106.536 38.5885 106.461 38.0286 106.461 37.3828V36.4297C106.461 35.6849 106.549 35.0573 106.727 34.5469C106.904 34.0312 107.135 33.6146 107.422 33.2969C107.714 32.974 108.047 32.7422 108.422 32.6016C108.797 32.4609 109.185 32.3906 109.586 32.3906C110.117 32.3906 110.57 32.4792 110.945 32.6562C111.32 32.8281 111.628 33.0833 111.867 33.4219C112.107 33.7604 112.281 34.1771 112.391 34.6719C112.5 35.1667 112.555 35.737 112.555 36.3828V37.1875H107.836V37.3828C107.836 38.2891 108.005 38.9479 108.344 39.3594C108.688 39.7708 109.18 39.9766 109.82 39.9766C110.055 39.9766 110.266 39.9531 110.453 39.9062C110.641 39.8594 110.812 39.7943 110.969 39.7109C111.125 39.6224 111.268 39.5208 111.398 39.4062C111.529 39.2865 111.651 39.1562 111.766 39.0156L112.484 39.8906C112.37 40.0521 112.232 40.2083 112.07 40.3594C111.909 40.5104 111.716 40.6458 111.492 40.7656C111.268 40.8802 111.01 40.974 110.719 41.0469C110.432 41.1198 110.107 41.1562 109.742 41.1562ZM109.586 33.5781C109.346 33.5781 109.125 33.6146 108.922 33.6875C108.719 33.7604 108.539 33.8906 108.383 34.0781C108.232 34.2604 108.109 34.5078 108.016 34.8203C107.922 35.1328 107.865 35.526 107.844 36H111.172V35.8125C111.156 35.4844 111.12 35.1849 111.062 34.9141C111.01 34.638 110.924 34.401 110.805 34.2031C110.69 34.0052 110.534 33.8516 110.336 33.7422C110.138 33.6328 109.888 33.5781 109.586 33.5781ZM118.328 38.8359C118.328 38.6797 118.299 38.5391 118.242 38.4141C118.185 38.2839 118.091 38.1615 117.961 38.0469C117.831 37.9271 117.661 37.8099 117.453 37.6953C117.25 37.5807 116.997 37.4557 116.695 37.3203C116.305 37.1589 115.953 37 115.641 36.8438C115.333 36.6875 115.073 36.5156 114.859 36.3281C114.651 36.1354 114.49 35.9167 114.375 35.6719C114.266 35.4219 114.211 35.1276 114.211 34.7891C114.211 34.4557 114.273 34.1432 114.398 33.8516C114.529 33.5599 114.711 33.3073 114.945 33.0938C115.18 32.875 115.461 32.7031 115.789 32.5781C116.117 32.4531 116.484 32.3906 116.891 32.3906C117.318 32.3906 117.701 32.4557 118.039 32.5859C118.378 32.7161 118.664 32.8984 118.898 33.1328C119.133 33.362 119.312 33.6328 119.438 33.9453C119.562 34.2578 119.625 34.5938 119.625 34.9531H118.25C118.25 34.7812 118.219 34.6146 118.156 34.4531C118.099 34.2865 118.01 34.138 117.891 34.0078C117.776 33.8776 117.635 33.7734 117.469 33.6953C117.302 33.6172 117.109 33.5781 116.891 33.5781C116.656 33.5781 116.456 33.612 116.289 33.6797C116.128 33.7422 115.995 33.8281 115.891 33.9375C115.786 34.0417 115.708 34.1641 115.656 34.3047C115.609 34.4453 115.586 34.5911 115.586 34.7422C115.586 34.8984 115.607 35.0339 115.648 35.1484C115.695 35.2578 115.773 35.362 115.883 35.4609C115.992 35.5599 116.141 35.6589 116.328 35.7578C116.521 35.8568 116.766 35.9714 117.062 36.1016C117.49 36.2682 117.867 36.4375 118.195 36.6094C118.529 36.776 118.807 36.9609 119.031 37.1641C119.255 37.362 119.424 37.5885 119.539 37.8438C119.654 38.099 119.711 38.3958 119.711 38.7344C119.711 39.1042 119.643 39.4401 119.508 39.7422C119.378 40.0391 119.19 40.2943 118.945 40.5078C118.701 40.7161 118.406 40.8776 118.062 40.9922C117.719 41.1016 117.339 41.1562 116.922 41.1562C116.443 41.1562 116.018 41.0833 115.648 40.9375C115.279 40.7865 114.969 40.5885 114.719 40.3438C114.469 40.0938 114.279 39.8073 114.148 39.4844C114.023 39.1615 113.961 38.8255 113.961 38.4766H115.352C115.362 38.7734 115.417 39.0182 115.516 39.2109C115.615 39.4036 115.737 39.5573 115.883 39.6719C116.034 39.7865 116.201 39.8672 116.383 39.9141C116.565 39.9557 116.745 39.9766 116.922 39.9766C117.38 39.9766 117.729 39.875 117.969 39.6719C118.208 39.4635 118.328 39.1849 118.328 38.8359Z" fill="#161722"/>
<line x1="9.75" y1="23" x2="9.75" y2="29" stroke="#161722" stroke-width="1.5"/>
<rect x="0.75" y="4.75" width="18.5" height="18.5" rx="9.25" stroke="#161722" stroke-width="1.5"/>
</svg>
