<svg width="173" height="48" viewBox="0 0 173 48" fill="none" xmlns="http://www.w3.org/2000/svg">
<path d="M42.5 11.9766H38.6562V17H37.2266V5.625H43.1484V6.85938H38.6562V10.75H42.5V11.9766ZM48.0078 9.84375C47.8151 9.80729 47.6068 9.78906 47.3828 9.78906C46.6745 9.78906 46.1797 10.1771 45.8984 10.9531V17H44.5156V8.54688H45.8594L45.8828 9.40625C46.2526 8.72917 46.776 8.39062 47.4531 8.39062C47.6719 8.39062 47.8542 8.42708 48 8.5L48.0078 9.84375ZM50.8828 17H49.5V8.54688H50.8828V17ZM50.9922 6.30469C50.9922 6.53906 50.9271 6.73438 50.7969 6.89062C50.6667 7.04688 50.4688 7.125 50.2031 7.125C49.9427 7.125 49.7474 7.04688 49.6172 6.89062C49.487 6.73438 49.4219 6.53906 49.4219 6.30469C49.4219 6.07031 49.487 5.8724 49.6172 5.71094C49.7474 5.54948 49.9427 5.46875 50.2031 5.46875C50.4635 5.46875 50.6589 5.55208 50.7891 5.71875C50.9245 5.88021 50.9922 6.07552 50.9922 6.30469ZM52.7734 12.3906C52.7734 11.0885 53.0156 10.0964 53.5 9.41406C53.9896 8.73177 54.6901 8.39062 55.6016 8.39062C56.4089 8.39062 57.0391 8.71875 57.4922 9.375V5H58.875V17H57.6094L57.5391 16.0938C57.0859 16.8021 56.4375 17.1562 55.5938 17.1562C54.7188 17.1562 54.0312 16.8177 53.5312 16.1406C53.0365 15.4583 52.7839 14.4974 52.7734 13.2578V12.3906ZM54.1562 13.1797C54.1562 14.1276 54.2969 14.8255 54.5781 15.2734C54.8594 15.7161 55.3177 15.9375 55.9531 15.9375C56.6406 15.9375 57.1536 15.5911 57.4922 14.8984V10.6328C57.138 9.95573 56.6276 9.61719 55.9609 9.61719C55.3255 9.61719 54.8672 9.84115 54.5859 10.2891C54.3047 10.7318 54.1615 11.4141 54.1562 12.3359V13.1797ZM65.3516 17C65.2682 16.8177 65.2083 16.5104 65.1719 16.0781C64.6823 16.7969 64.0573 17.1562 63.2969 17.1562C62.5312 17.1562 61.9323 16.9427 61.5 16.5156C61.0729 16.0833 60.8594 15.4766 60.8594 14.6953C60.8594 13.8359 61.151 13.1536 61.7344 12.6484C62.3177 12.1432 63.1172 11.8854 64.1328 11.875H65.1484V10.9766C65.1484 10.4714 65.0365 10.112 64.8125 9.89844C64.5885 9.6849 64.2474 9.57812 63.7891 9.57812C63.3724 9.57812 63.0339 9.70312 62.7734 9.95312C62.513 10.1979 62.3828 10.5104 62.3828 10.8906H61C61 10.4583 61.1276 10.0469 61.3828 9.65625C61.638 9.26042 61.9818 8.95052 62.4141 8.72656C62.8464 8.5026 63.3281 8.39062 63.8594 8.39062C64.724 8.39062 65.3802 8.60677 65.8281 9.03906C66.2812 9.46615 66.513 10.0911 66.5234 10.9141V15.1797C66.5286 15.8307 66.6172 16.3958 66.7891 16.875V17H65.3516ZM63.5078 15.8984C63.8464 15.8984 64.1693 15.8047 64.4766 15.6172C64.7839 15.4297 65.0078 15.1953 65.1484 14.9141V12.8984H64.3672C63.7109 12.9089 63.1927 13.0573 62.8125 13.3438C62.4323 13.625 62.2422 14.0208 62.2422 14.5312C62.2422 15.0104 62.3385 15.3594 62.5312 15.5781C62.724 15.7917 63.0495 15.8984 63.5078 15.8984ZM70.8594 14.7031L72.3984 8.54688H73.8672L71.1016 18.1953C70.8932 18.9193 70.599 19.4688 70.2188 19.8438C69.8385 20.224 69.4062 20.4141 68.9219 20.4141C68.7344 20.4141 68.4948 20.3724 68.2031 20.2891V19.1172L68.5078 19.1484C68.9089 19.1484 69.2214 19.0521 69.4453 18.8594C69.6745 18.6719 69.8594 18.3438 70 17.875L70.2734 16.9297L67.7891 8.54688H69.2969L70.8594 14.7031ZM85.1328 17H78.7734V15.9609L82.0156 11.6641C82.5052 11.0026 82.8438 10.4609 83.0312 10.0391C83.224 9.61198 83.3203 9.16146 83.3203 8.6875C83.3203 8.08333 83.1797 7.59375 82.8984 7.21875C82.6172 6.84375 82.2474 6.65625 81.7891 6.65625C81.2109 6.65625 80.763 6.85677 80.4453 7.25781C80.1328 7.65365 79.9766 8.22656 79.9766 8.97656H78.5938C78.5938 7.92969 78.8802 7.08333 79.4531 6.4375C80.026 5.79167 80.8047 5.46875 81.7891 5.46875C82.6953 5.46875 83.4089 5.7474 83.9297 6.30469C84.4505 6.85677 84.7109 7.59375 84.7109 8.51562C84.7109 9.64062 84.125 10.9714 82.9531 12.5078L80.4219 15.8203H85.1328V17ZM88.4453 10.6094H89.3281C89.8958 10.6094 90.3333 10.4349 90.6406 10.0859C90.9479 9.73698 91.1016 9.26042 91.1016 8.65625C91.1016 7.32292 90.5859 6.65625 89.5547 6.65625C89.0599 6.65625 88.6719 6.83594 88.3906 7.19531C88.1094 7.55469 87.9688 8.02604 87.9688 8.60938H86.5938C86.5938 7.69792 86.8698 6.94792 87.4219 6.35938C87.9792 5.76562 88.6901 5.46875 89.5547 5.46875C90.4505 5.46875 91.1615 5.75 91.6875 6.3125C92.2135 6.86979 92.4766 7.66146 92.4766 8.6875C92.4766 9.21354 92.3385 9.70573 92.0625 10.1641C91.7917 10.6172 91.4375 10.9505 91 11.1641C92.0729 11.5599 92.6094 12.4479 92.6094 13.8281C92.6094 14.8438 92.3255 15.6536 91.7578 16.2578C91.1953 16.8568 90.4583 17.1562 89.5469 17.1562C88.6458 17.1562 87.9167 16.8724 87.3594 16.3047C86.8073 15.7318 86.5312 14.9635 86.5312 14H87.9141C87.9141 14.6042 88.0599 15.0859 88.3516 15.4453C88.6432 15.7995 89.0417 15.9766 89.5469 15.9766C90.0625 15.9766 90.4714 15.8021 90.7734 15.4531C91.0807 15.1042 91.2344 14.5729 91.2344 13.8594C91.2344 12.4792 90.5807 11.7891 89.2734 11.7891H88.4453V10.6094ZM94.75 16.2422C94.75 15.9922 94.8229 15.7839 94.9688 15.6172C95.1198 15.4505 95.3438 15.3672 95.6406 15.3672C95.9375 15.3672 96.1615 15.4505 96.3125 15.6172C96.4688 15.7839 96.5469 15.9922 96.5469 16.2422C96.5469 16.4818 96.4688 16.6823 96.3125 16.8438C96.1615 17.0052 95.9375 17.0859 95.6406 17.0859C95.3438 17.0859 95.1198 17.0052 94.9688 16.8438C94.8229 16.6823 94.75 16.4818 94.75 16.2422ZM94.7578 9.34375C94.7578 9.09375 94.8307 8.88542 94.9766 8.71875C95.1276 8.55208 95.3516 8.46875 95.6484 8.46875C95.9453 8.46875 96.1693 8.55208 96.3203 8.71875C96.4766 8.88542 96.5547 9.09375 96.5547 9.34375C96.5547 9.58333 96.4766 9.78385 96.3203 9.94531C96.1693 10.1068 95.9453 10.1875 95.6484 10.1875C95.3516 10.1875 95.1276 10.1068 94.9766 9.94531C94.8307 9.78385 94.7578 9.58333 94.7578 9.34375ZM100.086 10.6094H100.969C101.536 10.6094 101.974 10.4349 102.281 10.0859C102.589 9.73698 102.742 9.26042 102.742 8.65625C102.742 7.32292 102.227 6.65625 101.195 6.65625C100.701 6.65625 100.312 6.83594 100.031 7.19531C99.75 7.55469 99.6094 8.02604 99.6094 8.60938H98.2344C98.2344 7.69792 98.5104 6.94792 99.0625 6.35938C99.6198 5.76562 100.331 5.46875 101.195 5.46875C102.091 5.46875 102.802 5.75 103.328 6.3125C103.854 6.86979 104.117 7.66146 104.117 8.6875C104.117 9.21354 103.979 9.70573 103.703 10.1641C103.432 10.6172 103.078 10.9505 102.641 11.1641C103.714 11.5599 104.25 12.4479 104.25 13.8281C104.25 14.8438 103.966 15.6536 103.398 16.2578C102.836 16.8568 102.099 17.1562 101.188 17.1562C100.286 17.1562 99.5573 16.8724 99 16.3047C98.4479 15.7318 98.1719 14.9635 98.1719 14H99.5547C99.5547 14.6042 99.7005 15.0859 99.9922 15.4453C100.284 15.7995 100.682 15.9766 101.188 15.9766C101.703 15.9766 102.112 15.8021 102.414 15.4531C102.721 15.1042 102.875 14.5729 102.875 13.8594C102.875 12.4792 102.221 11.7891 100.914 11.7891H100.086V10.6094ZM110.773 12.1406C110.221 12.8438 109.576 13.1953 108.836 13.1953C108.008 13.1953 107.349 12.8464 106.859 12.1484C106.37 11.4505 106.125 10.5365 106.125 9.40625C106.125 8.21875 106.391 7.26562 106.922 6.54688C107.458 5.82812 108.188 5.46875 109.109 5.46875C110.068 5.46875 110.815 5.88542 111.352 6.71875C111.893 7.54688 112.164 8.69531 112.164 10.1641V10.5938C112.164 11.8542 112.068 12.875 111.875 13.6562C111.688 14.4375 111.409 15.0677 111.039 15.5469C110.669 16.026 110.198 16.3906 109.625 16.6406C109.052 16.8854 108.336 17.0078 107.477 17.0078V15.7891H107.719C108.698 15.7682 109.44 15.4714 109.945 14.8984C110.456 14.3203 110.732 13.401 110.773 12.1406ZM109.07 12C109.404 12 109.729 11.862 110.047 11.5859C110.365 11.3047 110.612 10.9375 110.789 10.4844V9.875C110.789 8.93229 110.625 8.16406 110.297 7.57031C109.969 6.97135 109.573 6.67188 109.109 6.67188C108.609 6.67188 108.211 6.91927 107.914 7.41406C107.622 7.90365 107.477 8.54167 107.477 9.32812C107.477 10.1146 107.62 10.7578 107.906 11.2578C108.193 11.7526 108.581 12 109.07 12ZM119.609 17H118.18V5.625H119.609V17ZM127.086 14.125C127.086 13.5573 126.932 13.1224 126.625 12.8203C126.318 12.5182 125.763 12.224 124.961 11.9375C124.159 11.651 123.544 11.3516 123.117 11.0391C122.695 10.7214 122.378 10.362 122.164 9.96094C121.956 9.55469 121.852 9.09115 121.852 8.57031C121.852 7.66927 122.151 6.92708 122.75 6.34375C123.354 5.76042 124.143 5.46875 125.117 5.46875C125.784 5.46875 126.378 5.61979 126.898 5.92188C127.419 6.21875 127.82 6.63281 128.102 7.16406C128.383 7.69531 128.523 8.27865 128.523 8.91406H127.086C127.086 8.21094 126.917 7.66667 126.578 7.28125C126.24 6.89583 125.753 6.70312 125.117 6.70312C124.539 6.70312 124.091 6.86458 123.773 7.1875C123.456 7.51042 123.297 7.96354 123.297 8.54688C123.297 9.02604 123.469 9.42708 123.812 9.75C124.156 10.0729 124.688 10.362 125.406 10.6172C126.526 10.987 127.326 11.4427 127.805 11.9844C128.289 12.526 128.531 13.2344 128.531 14.1094C128.531 15.0312 128.232 15.7708 127.633 16.3281C127.034 16.8802 126.219 17.1562 125.188 17.1562C124.526 17.1562 123.914 17.013 123.352 16.7266C122.794 16.4349 122.354 16.0286 122.031 15.5078C121.714 14.9818 121.555 14.3802 121.555 13.7031H122.992C122.992 14.4062 123.188 14.9531 123.578 15.3438C123.974 15.7344 124.51 15.9297 125.188 15.9297C125.818 15.9297 126.292 15.7682 126.609 15.4453C126.927 15.1224 127.086 14.6823 127.086 14.125ZM137.062 6.85938H134.07V17H132.641V6.85938H129.656V5.625H137.062V6.85938ZM42.1953 38.125C42.1953 37.5573 42.0417 37.1224 41.7344 36.8203C41.4271 36.5182 40.8724 36.224 40.0703 35.9375C39.2682 35.651 38.6536 35.3516 38.2266 35.0391C37.8047 34.7214 37.487 34.362 37.2734 33.9609C37.0651 33.5547 36.9609 33.0911 36.9609 32.5703C36.9609 31.6693 37.2604 30.9271 37.8594 30.3438C38.4635 29.7604 39.2526 29.4688 40.2266 29.4688C40.8932 29.4688 41.487 29.6198 42.0078 29.9219C42.5286 30.2188 42.9297 30.6328 43.2109 31.1641C43.4922 31.6953 43.6328 32.2786 43.6328 32.9141H42.1953C42.1953 32.2109 42.026 31.6667 41.6875 31.2812C41.349 30.8958 40.862 30.7031 40.2266 30.7031C39.6484 30.7031 39.2005 30.8646 38.8828 31.1875C38.5651 31.5104 38.4062 31.9635 38.4062 32.5469C38.4062 33.026 38.5781 33.4271 38.9219 33.75C39.2656 34.0729 39.7969 34.362 40.5156 34.6172C41.6354 34.987 42.4349 35.4427 42.9141 35.9844C43.3984 36.526 43.6406 37.2344 43.6406 38.1094C43.6406 39.0312 43.3411 39.7708 42.7422 40.3281C42.1432 40.8802 41.3281 41.1562 40.2969 41.1562C39.6354 41.1562 39.0234 41.013 38.4609 40.7266C37.9036 40.4349 37.4635 40.0286 37.1406 39.5078C36.8229 38.9818 36.6641 38.3802 36.6641 37.7031H38.1016C38.1016 38.4062 38.2969 38.9531 38.6875 39.3438C39.0833 39.7344 39.6198 39.9297 40.2969 39.9297C40.9271 39.9297 41.401 39.7682 41.7188 39.4453C42.0365 39.1224 42.1953 38.6823 42.1953 38.125ZM49.6797 41C49.5964 40.8177 49.5365 40.5104 49.5 40.0781C49.0104 40.7969 48.3854 41.1562 47.625 41.1562C46.8594 41.1562 46.2604 40.9427 45.8281 40.5156C45.401 40.0833 45.1875 39.4766 45.1875 38.6953C45.1875 37.8359 45.4792 37.1536 46.0625 36.6484C46.6458 36.1432 47.4453 35.8854 48.4609 35.875H49.4766V34.9766C49.4766 34.4714 49.3646 34.112 49.1406 33.8984C48.9167 33.6849 48.5755 33.5781 48.1172 33.5781C47.7005 33.5781 47.362 33.7031 47.1016 33.9531C46.8411 34.1979 46.7109 34.5104 46.7109 34.8906H45.3281C45.3281 34.4583 45.4557 34.0469 45.7109 33.6562C45.9661 33.2604 46.3099 32.9505 46.7422 32.7266C47.1745 32.5026 47.6562 32.3906 48.1875 32.3906C49.0521 32.3906 49.7083 32.6068 50.1562 33.0391C50.6094 33.4661 50.8411 34.0911 50.8516 34.9141V39.1797C50.8568 39.8307 50.9453 40.3958 51.1172 40.875V41H49.6797ZM47.8359 39.8984C48.1745 39.8984 48.4974 39.8047 48.8047 39.6172C49.112 39.4297 49.3359 39.1953 49.4766 38.9141V36.8984H48.6953C48.0391 36.9089 47.5208 37.0573 47.1406 37.3438C46.7604 37.625 46.5703 38.0208 46.5703 38.5312C46.5703 39.0104 46.6667 39.3594 46.8594 39.5781C47.0521 39.7917 47.3776 39.8984 47.8359 39.8984ZM54.8125 30.5V32.5469H56.0859V33.6641H54.8125V38.9062C54.8125 39.2396 54.8672 39.4922 54.9766 39.6641C55.0859 39.8359 55.2734 39.9219 55.5391 39.9219C55.7214 39.9219 55.9062 39.8906 56.0938 39.8281L56.0781 41C55.7656 41.1042 55.4453 41.1562 55.1172 41.1562C54.5703 41.1562 54.1536 40.9609 53.8672 40.5703C53.5807 40.1797 53.4375 39.6276 53.4375 38.9141V33.6641H52.1484V32.5469H53.4375V30.5H54.8125ZM62.0469 40.2578C61.5885 40.8568 60.9193 41.1562 60.0391 41.1562C59.2734 41.1562 58.6953 40.8932 58.3047 40.3672C57.9141 39.8359 57.7161 39.0651 57.7109 38.0547V32.5469H59.0859V37.9531C59.0859 39.2708 59.4818 39.9297 60.2734 39.9297C61.112 39.9297 61.6901 39.5547 62.0078 38.8047V32.5469H63.3906V41H62.0781L62.0469 40.2578ZM68.9609 33.8438C68.7682 33.8073 68.5599 33.7891 68.3359 33.7891C67.6276 33.7891 67.1328 34.1771 66.8516 34.9531V41H65.4688V32.5469H66.8125L66.8359 33.4062C67.2057 32.7292 67.7292 32.3906 68.4062 32.3906C68.625 32.3906 68.8073 32.4271 68.9531 32.5L68.9609 33.8438ZM69.8984 36.3906C69.8984 35.0885 70.1406 34.0964 70.625 33.4141C71.1146 32.7318 71.8151 32.3906 72.7266 32.3906C73.5339 32.3906 74.1641 32.7188 74.6172 33.375V29H76V41H74.7344L74.6641 40.0938C74.2109 40.8021 73.5625 41.1562 72.7188 41.1562C71.8438 41.1562 71.1562 40.8177 70.6562 40.1406C70.1615 39.4583 69.9089 38.4974 69.8984 37.2578V36.3906ZM71.2812 37.1797C71.2812 38.1276 71.4219 38.8255 71.7031 39.2734C71.9844 39.7161 72.4427 39.9375 73.0781 39.9375C73.7656 39.9375 74.2786 39.5911 74.6172 38.8984V34.6328C74.263 33.9557 73.7526 33.6172 73.0859 33.6172C72.4505 33.6172 71.9922 33.8411 71.7109 34.2891C71.4297 34.7318 71.2865 35.4141 71.2812 36.3359V37.1797ZM82.4766 41C82.3932 40.8177 82.3333 40.5104 82.2969 40.0781C81.8073 40.7969 81.1823 41.1562 80.4219 41.1562C79.6562 41.1562 79.0573 40.9427 78.625 40.5156C78.1979 40.0833 77.9844 39.4766 77.9844 38.6953C77.9844 37.8359 78.276 37.1536 78.8594 36.6484C79.4427 36.1432 80.2422 35.8854 81.2578 35.875H82.2734V34.9766C82.2734 34.4714 82.1615 34.112 81.9375 33.8984C81.7135 33.6849 81.3724 33.5781 80.9141 33.5781C80.4974 33.5781 80.1589 33.7031 79.8984 33.9531C79.638 34.1979 79.5078 34.5104 79.5078 34.8906H78.125C78.125 34.4583 78.2526 34.0469 78.5078 33.6562C78.763 33.2604 79.1068 32.9505 79.5391 32.7266C79.9714 32.5026 80.4531 32.3906 80.9844 32.3906C81.849 32.3906 82.5052 32.6068 82.9531 33.0391C83.4062 33.4661 83.638 34.0911 83.6484 34.9141V39.1797C83.6536 39.8307 83.7422 40.3958 83.9141 40.875V41H82.4766ZM80.6328 39.8984C80.9714 39.8984 81.2943 39.8047 81.6016 39.6172C81.9089 39.4297 82.1328 39.1953 82.2734 38.9141V36.8984H81.4922C80.8359 36.9089 80.3177 37.0573 79.9375 37.3438C79.5573 37.625 79.3672 38.0208 79.3672 38.5312C79.3672 39.0104 79.4635 39.3594 79.6562 39.5781C79.849 39.7917 80.1745 39.8984 80.6328 39.8984ZM87.9844 38.7031L89.5234 32.5469H90.9922L88.2266 42.1953C88.0182 42.9193 87.724 43.4688 87.3438 43.8438C86.9635 44.224 86.5312 44.4141 86.0469 44.4141C85.8594 44.4141 85.6198 44.3724 85.3281 44.2891V43.1172L85.6328 43.1484C86.0339 43.1484 86.3464 43.0521 86.5703 42.8594C86.7995 42.6719 86.9844 42.3438 87.125 41.875L87.3984 40.9297L84.9141 32.5469H86.4219L87.9844 38.7031ZM100.016 41H98.625V31.3672L96.2344 32.4375V31.125L99.7969 29.5703H100.016V41ZM107.922 41H106.531V31.3672L104.141 32.4375V31.125L107.703 29.5703H107.922V41ZM111.875 40.2422C111.875 39.9922 111.948 39.7839 112.094 39.6172C112.245 39.4505 112.469 39.3672 112.766 39.3672C113.062 39.3672 113.286 39.4505 113.438 39.6172C113.594 39.7839 113.672 39.9922 113.672 40.2422C113.672 40.4818 113.594 40.6823 113.438 40.8438C113.286 41.0052 113.062 41.0859 112.766 41.0859C112.469 41.0859 112.245 41.0052 112.094 40.8438C111.948 40.6823 111.875 40.4818 111.875 40.2422ZM111.883 33.3438C111.883 33.0938 111.956 32.8854 112.102 32.7188C112.253 32.5521 112.477 32.4688 112.773 32.4688C113.07 32.4688 113.294 32.5521 113.445 32.7188C113.602 32.8854 113.68 33.0938 113.68 33.3438C113.68 33.5833 113.602 33.7839 113.445 33.9453C113.294 34.1068 113.07 34.1875 112.773 34.1875C112.477 34.1875 112.253 34.1068 112.102 33.9453C111.956 33.7839 111.883 33.5833 111.883 33.3438ZM121.805 41H115.445V39.9609L118.688 35.6641C119.177 35.0026 119.516 34.4609 119.703 34.0391C119.896 33.612 119.992 33.1615 119.992 32.6875C119.992 32.0833 119.852 31.5938 119.57 31.2188C119.289 30.8438 118.919 30.6562 118.461 30.6562C117.883 30.6562 117.435 30.8568 117.117 31.2578C116.805 31.6536 116.648 32.2266 116.648 32.9766H115.266C115.266 31.9297 115.552 31.0833 116.125 30.4375C116.698 29.7917 117.477 29.4688 118.461 29.4688C119.367 29.4688 120.081 29.7474 120.602 30.3047C121.122 30.8568 121.383 31.5938 121.383 32.5156C121.383 33.6406 120.797 34.9714 119.625 36.5078L117.094 39.8203H121.805V41ZM129.43 36.1484C129.43 37.8255 129.185 39.0807 128.695 39.9141C128.206 40.7422 127.438 41.1562 126.391 41.1562C125.375 41.1562 124.617 40.7578 124.117 39.9609C123.617 39.1641 123.357 37.9661 123.336 36.3672V34.4141C123.336 32.7526 123.581 31.513 124.07 30.6953C124.565 29.8776 125.333 29.4688 126.375 29.4688C127.401 29.4688 128.159 29.8568 128.648 30.6328C129.143 31.4089 129.404 32.5833 129.43 34.1562V36.1484ZM128.047 34.1719C128.047 32.9688 127.914 32.0833 127.648 31.5156C127.383 30.9427 126.958 30.6562 126.375 30.6562C125.807 30.6562 125.391 30.9375 125.125 31.5C124.859 32.0573 124.721 32.901 124.711 34.0312V36.375C124.711 37.5729 124.849 38.474 125.125 39.0781C125.401 39.6771 125.823 39.9766 126.391 39.9766C126.953 39.9766 127.367 39.6927 127.633 39.125C127.898 38.5573 128.036 37.6901 128.047 36.5234V34.1719ZM136.734 41H135.305V29.625H136.734V41ZM144.211 38.125C144.211 37.5573 144.057 37.1224 143.75 36.8203C143.443 36.5182 142.888 36.224 142.086 35.9375C141.284 35.651 140.669 35.3516 140.242 35.0391C139.82 34.7214 139.503 34.362 139.289 33.9609C139.081 33.5547 138.977 33.0911 138.977 32.5703C138.977 31.6693 139.276 30.9271 139.875 30.3438C140.479 29.7604 141.268 29.4688 142.242 29.4688C142.909 29.4688 143.503 29.6198 144.023 29.9219C144.544 30.2188 144.945 30.6328 145.227 31.1641C145.508 31.6953 145.648 32.2786 145.648 32.9141H144.211C144.211 32.2109 144.042 31.6667 143.703 31.2812C143.365 30.8958 142.878 30.7031 142.242 30.7031C141.664 30.7031 141.216 30.8646 140.898 31.1875C140.581 31.5104 140.422 31.9635 140.422 32.5469C140.422 33.026 140.594 33.4271 140.938 33.75C141.281 34.0729 141.812 34.362 142.531 34.6172C143.651 34.987 144.451 35.4427 144.93 35.9844C145.414 36.526 145.656 37.2344 145.656 38.1094C145.656 39.0312 145.357 39.7708 144.758 40.3281C144.159 40.8802 143.344 41.1562 142.312 41.1562C141.651 41.1562 141.039 41.013 140.477 40.7266C139.919 40.4349 139.479 40.0286 139.156 39.5078C138.839 38.9818 138.68 38.3802 138.68 37.7031H140.117C140.117 38.4062 140.312 38.9531 140.703 39.3438C141.099 39.7344 141.635 39.9297 142.312 39.9297C142.943 39.9297 143.417 39.7682 143.734 39.4453C144.052 39.1224 144.211 38.6823 144.211 38.125ZM147.539 41V29.625H150.25C151.578 29.625 152.609 30.0417 153.344 30.875C154.078 31.7031 154.445 32.8698 154.445 34.375V36.2812C154.445 37.7865 154.073 38.9505 153.328 39.7734C152.583 40.5911 151.503 41 150.086 41H147.539ZM148.969 30.8594V39.7734H150.117C151.122 39.7734 151.857 39.487 152.32 38.9141C152.784 38.3359 153.021 37.4818 153.031 36.3516V34.3359C153.031 33.138 152.799 32.2604 152.336 31.7031C151.878 31.1406 151.182 30.8594 150.25 30.8594H148.969Z" fill="#161722"/>
<path fill-rule="evenodd" clip-rule="evenodd" d="M10 3.53846C5.32682 3.53846 1.53846 7.32682 1.53846 12C1.53846 16.6732 5.32682 20.4615 10 20.4615C14.6732 20.4615 18.4615 16.6732 18.4615 12C18.4615 7.32682 14.6732 3.53846 10 3.53846ZM0 12C0 6.47715 4.47715 2 10 2C15.5228 2 20 6.47715 20 12C20 17.5228 15.5228 22 10 22C4.47715 22 0 17.5228 0 12ZM10 7.12821C10.4248 7.12821 10.7692 7.4726 10.7692 7.89744V11.6814L13.6209 14.533C13.9213 14.8334 13.9213 15.3204 13.6209 15.6209C13.3204 15.9213 12.8334 15.9213 12.533 15.6209L9.45607 12.5439C9.31181 12.3997 9.23077 12.204 9.23077 12V7.89744C9.23077 7.4726 9.57517 7.12821 10 7.12821Z" fill="#161722"/>
</svg>
